<svg width="300" height="320" viewBox="0 0 300 320" fill="none" xmlns="http://www.w3.org/2000/svg">
<circle cx="150" cy="160" r="150" fill="#51D4F1"/>
<path d="M160 160L160 150L140 150L140 160L160 160ZM140 310C140 315.523 144.477 320 150 320C155.523 320 160 315.523 160 310L140 310ZM140 160L140 310L160 310L160 160L140 160Z" fill="black"/>
<path d="M160 10C160 4.47715 155.523 4.54046e-10 150 0C144.477 -4.54046e-10 140 4.47715 140 10L160 10ZM140 160L140 170L160 170L160 160L140 160ZM140 10L140 160L160 160L160 10L140 10Z" fill="#FF0000"/>
<circle cx="150" cy="160" r="30" fill="#D9D9D9"/>
<circle cx="150" cy="160" r="20" fill="#D9D9D9"/>
<circle cx="150" cy="160" r="20" fill="black" fill-opacity="0.2"/>
</svg>
